<svg width="200" height="200" viewBox="0 0 200 200" fill="none" xmlns="http://www.w3.org/2000/svg" xmlns:xlink="http://www.w3.org/1999/xlink">
<path d="M192.963,99.996C196.051,96.399 198.216,92.103 199.268,87.48C200.32,82.857 200.23,78.047 199.002,73.468C197.775,68.888 195.449,64.677 192.226,61.2C189.003,57.723 184.98,55.085 180.507,53.515C181.384,48.855 181.11,44.052 179.71,39.522C178.31,34.993 175.826,30.873 172.473,27.52C169.12,24.168 165,21.684 160.47,20.285C155.94,18.885 151.137,18.612 146.477,19.49C144.908,15.015 142.27,10.991 138.793,7.768C135.316,4.544 131.105,2.217 126.525,0.99C121.945,-0.236 117.134,-0.327 112.511,0.727C107.888,1.781 103.592,3.947 99.996,7.038C96.4,3.95 92.103,1.785 87.481,0.733C82.858,-0.32 78.048,-0.229 73.469,0.999C68.889,2.226 64.678,4.552 61.201,7.775C57.724,10.998 55.086,15.02 53.516,19.494C48.856,18.618 44.054,18.892 39.525,20.293C34.995,21.693 30.876,24.178 27.524,27.53C24.172,30.883 21.689,35.003 20.29,39.532C18.891,44.062 18.618,48.864 19.494,53.523C15.021,55.094 10.998,57.732 7.775,61.209C4.552,64.686 2.226,68.897 0.999,73.477C-0.228,78.056 -0.319,82.866 0.733,87.489C1.786,92.111 3.95,96.407 7.039,100.004C3.949,103.601 1.784,107.898 0.731,112.521C-0.322,117.144 -0.23,121.954 0.998,126.534C2.225,131.114 4.552,135.325 7.776,138.802C11,142.279 15.024,144.916 19.499,146.485C18.621,151.144 18.894,155.947 20.293,160.477C21.693,165.007 24.177,169.127 27.529,172.479C30.882,175.831 35.002,178.315 39.532,179.713C44.062,181.112 48.865,181.384 53.524,180.506C55.095,184.98 57.733,189.002 61.21,192.225C64.687,195.448 68.898,197.774 73.477,199.002C78.057,200.228 82.866,200.32 87.489,199.268C92.112,198.215 96.408,196.051 100.005,192.962C103.602,196.051 107.898,198.217 112.522,199.269C117.145,200.322 121.955,200.23 126.535,199.003C131.115,197.775 135.326,195.449 138.803,192.224C142.28,189 144.917,184.976 146.486,180.502C151.145,181.379 155.948,181.106 160.478,179.707C165.008,178.307 169.128,175.824 172.481,172.471C175.833,169.119 178.317,164.999 179.716,160.469C181.116,155.939 181.389,151.136 180.511,146.477C184.985,144.907 189.008,142.268 192.231,138.791C195.454,135.314 197.78,131.103 199.007,126.523C200.234,121.943 200.324,117.133 199.271,112.511C198.218,107.888 196.052,103.592 192.963,99.996L192.963,99.996Z" fill="#18C07A"/>
<path d="M82.049,138.168L54.26,110.397C53.206,109.341 52.613,107.909 52.613,106.416C52.613,104.924 53.206,103.492 54.26,102.436L57.636,99.055C58.693,98.001 60.124,97.408 61.617,97.408C63.11,97.408 64.541,98.001 65.598,99.055L85.798,119.242L133.371,68.688C134.395,67.601 135.807,66.966 137.299,66.92C138.791,66.875 140.24,67.423 141.328,68.445L144.795,71.717C145.883,72.741 146.519,74.155 146.564,75.647C146.61,77.14 146.061,78.59 145.038,79.678L90.145,138.043C89.628,138.594 89.006,139.035 88.315,139.34C87.624,139.646 86.879,139.809 86.124,139.821C85.368,139.833 84.618,139.693 83.918,139.409C83.218,139.125 82.583,138.703 82.049,138.168L82.049,138.168Z" fill="#FFFFFF"/>
</svg>
